<svg width="16" height="4" viewBox="0 0 16 4" fill="none" xmlns="http://www.w3.org/2000/svg">
<path d="M8.00004 2.83335C8.46028 2.83335 8.83337 2.46026 8.83337 2.00002C8.83337 1.53978 8.46028 1.16669 8.00004 1.16669C7.5398 1.16669 7.16671 1.53978 7.16671 2.00002C7.16671 2.46026 7.5398 2.83335 8.00004 2.83335Z" stroke="#606060" stroke-width="1.5" stroke-linecap="round" stroke-linejoin="round"/>
<path d="M13.8334 2.83335C14.2936 2.83335 14.6667 2.46026 14.6667 2.00002C14.6667 1.53978 14.2936 1.16669 13.8334 1.16669C13.3731 1.16669 13 1.53978 13 2.00002C13 2.46026 13.3731 2.83335 13.8334 2.83335Z" stroke="#606060" stroke-width="1.5" stroke-linecap="round" stroke-linejoin="round"/>
<path d="M2.16671 2.83335C2.62694 2.83335 3.00004 2.46026 3.00004 2.00002C3.00004 1.53978 2.62694 1.16669 2.16671 1.16669C1.70647 1.16669 1.33337 1.53978 1.33337 2.00002C1.33337 2.46026 1.70647 2.83335 2.16671 2.83335Z" stroke="#606060" stroke-width="1.5" stroke-linecap="round" stroke-linejoin="round"/>
</svg>
